<?xml version="1.0" standalone="no"?>
<!DOCTYPE svg PUBLIC "-//W3C//DTD SVG 20010904//EN"
 "http://www.w3.org/TR/2001/REC-SVG-20010904/DTD/svg10.dtd">
<svg version="1.0" xmlns="http://www.w3.org/2000/svg"
 width="1762.000000pt" height="1762.000000pt" viewBox="0 0 1762.000000 1762.000000"
 preserveAspectRatio="xMidYMid meet">
<metadata>
Created by potrace 1.11, written by Peter Selinger 2001-2013
</metadata>
<g transform="translate(0.000000,1762.000000) scale(0.100000,-0.100000)"
fill="#000000" stroke="none">
<path d="M11160 17173 c0 -9 75 -147 238 -439 62 -110 112 -205 112 -211 0
-34 -120 -12 -187 35 -51 35 -58 35 -27 1 17 -19 82 -90 144 -159 144 -159
190 -217 184 -234 -3 -7 3 -19 12 -27 16 -12 17 -12 11 4 -21 57 321 -279 431
-421 86 -113 164 -236 228 -363 55 -111 114 -239 110 -239 -2 0 -39 62 -81
138 -119 209 -252 406 -352 522 -85 98 -294 310 -305 310 -3 0 8 -46 24 -102
30 -108 79 -378 98 -538 6 -52 13 -108 15 -125 2 -16 7 -68 10 -115 4 -47 8
-94 10 -106 2 -11 6 -76 10 -145 4 -68 9 -140 11 -159 2 -19 7 -196 11 -393
l6 -358 -29 6 c-16 4 -83 22 -149 40 -66 19 -139 39 -161 44 l-42 11 -12 98
c-52 423 -264 885 -695 1518 -145 212 -183 264 -195 264 -17 0 -11 -64 15
-166 25 -95 133 -448 327 -1069 114 -363 144 -461 153 -504 l7 -34 -113 60
c-389 204 -842 559 -1464 1144 -76 72 -138 119 -157 119 -85 0 148 -417 429
-767 107 -134 308 -340 423 -432 245 -197 564 -386 865 -512 l90 -38 6 -46 c8
-70 1 -245 -16 -376 -39 -309 -144 -555 -305 -718 -322 -326 -849 -608 -1187
-636 -128 -11 -250 20 -303 77 -31 34 -46 97 -100 427 -52 313 -77 431 -90
431 -9 0 -16 -41 -24 -135 -5 -57 -8 -153 -21 -630 -10 -378 -18 -416 -98
-475 -75 -55 -162 -75 -322 -74 -139 1 -169 5 -420 58 -71 15 -173 27 -250 31
-251 11 -277 18 -343 89 -110 119 -218 394 -252 637 -7 46 -12 184 -13 307 0
122 -1 221 -3 220 -1 -2 -36 -102 -77 -223 -114 -337 -179 -485 -233 -536 -43
-40 -189 -34 -514 22 -383 66 -542 117 -707 227 -65 43 -90 87 -132 234 -37
126 -81 342 -81 393 0 49 24 79 256 315 197 201 260 285 311 415 32 83 57 209
51 258 -3 26 -15 14 -154 -145 -277 -317 -499 -535 -515 -506 -6 12 -28 178
-44 328 -10 102 -25 374 -31 565 -3 105 -7 210 -9 235 -2 25 -3 102 -4 173 -1
75 -5 127 -11 127 -21 0 -103 -313 -151 -578 -24 -129 -33 -363 -19 -497 4
-44 11 -114 15 -155 3 -41 15 -144 26 -229 l20 -154 -23 -24 c-53 -57 -457
-313 -493 -313 -10 0 -38 10 -63 21 -146 71 -225 420 -221 977 3 412 66 954
149 1267 38 145 50 250 29 243 -22 -7 -113 -188 -178 -353 -152 -387 -248
-756 -285 -1100 -20 -182 -15 -671 8 -813 37 -229 110 -442 202 -589 114 -183
345 -359 604 -458 183 -71 517 -157 993 -255 332 -68 501 -122 697 -220 212
-106 400 -262 400 -333 0 -16 -148 -109 -200 -125 -19 -6 -93 -18 -165 -27
-145 -17 -181 -26 -242 -61 -47 -27 -85 -83 -108 -160 -21 -72 -65 -135 -134
-192 -130 -108 -271 -174 -518 -242 -249 -69 -376 -132 -478 -234 -107 -108
-150 -242 -128 -395 19 -124 66 -204 147 -249 63 -35 274 -12 381 40 105 52
123 103 75 205 -45 96 -52 123 -39 155 20 48 68 63 214 65 72 1 134 2 139 2
20 2 -25 39 -133 109 -68 44 -110 77 -104 83 13 13 124 39 583 134 456 95 673
145 765 175 72 24 107 55 216 196 195 252 362 343 609 331 158 -8 238 -44 415
-192 119 -99 151 -114 236 -115 108 0 231 46 309 116 22 20 72 91 112 157 91
154 151 216 260 267 46 21 245 102 443 178 381 149 686 273 900 367 174 76
621 297 770 381 423 236 937 574 1086 712 170 157 231 408 230 952 -1 605
-127 1098 -400 1559 -141 238 -303 428 -467 547 -45 32 -115 83 -157 113 -67
49 -75 59 -80 93 -16 116 -258 487 -524 800 -74 88 -93 106 -93 91z m579
-1208 c0 -5 -4 -3 -9 5 -5 8 -9 22 -9 30 0 16 17 -16 18 -35z m70 -260 c51
-204 89 -467 106 -725 3 -52 8 -115 10 -140 7 -78 17 -405 12 -400 -2 3 -7 37
-11 75 -3 39 -10 111 -16 160 -77 719 -101 919 -126 1059 -25 144 -16 133 25
-29z m-1060 -105 c10 -30 49 -140 86 -245 37 -104 133 -386 214 -625 81 -239
151 -443 155 -452 7 -15 5 -16 -24 -5 -20 8 -33 20 -36 37 -20 88 -156 518
-395 1244 -38 117 -38 154 0 46z m1385 -135 c98 -131 198 -298 235 -394 27
-71 48 -183 65 -361 14 -137 18 -466 7 -507 -8 -31 -33 -64 -92 -125 -45 -46
-83 -78 -86 -71 -2 6 0 42 6 80 13 89 5 434 -13 593 -28 236 -89 491 -189 789
-50 151 -49 151 67 -4z m-2333 -552 c259 -305 438 -474 717 -677 50 -37 92
-70 92 -72 0 -8 -212 138 -348 240 -170 128 -277 240 -467 491 -37 50 -72 96
-78 103 -5 6 -7 12 -4 12 3 0 43 -44 88 -97z m-5240 -250 c-17 -73 -77 -418
-105 -603 -46 -303 -56 -623 -25 -850 14 -102 101 -383 148 -483 45 -94 120
-196 183 -247 255 -210 453 -300 913 -415 356 -90 686 -178 681 -182 -8 -8
-799 176 -1019 237 -188 53 -466 201 -585 313 -103 97 -203 258 -273 435 -75
193 -99 363 -99 698 0 252 12 401 45 572 30 152 137 583 143 577 2 -2 -1 -26
-7 -52z m909 -250 c-16 -147 -21 -560 -9 -713 6 -69 35 -271 65 -449 30 -178
53 -326 51 -327 -5 -6 -96 397 -112 496 -52 334 -65 524 -45 705 15 137 53
405 58 401 2 -3 -2 -53 -8 -113z m6477 -20 c-3 -10 -5 -4 -5 12 0 17 2 24 5
18 2 -7 2 -21 0 -30z m-5813 -495 c-96 -135 -181 -235 -326 -383 -119 -121
-159 -157 -168 -149 -18 18 -3 45 48 87 84 69 241 228 359 364 64 73 118 133
120 133 3 0 -12 -24 -33 -52z m5310 -39 c223 -64 629 -224 796 -312 154 -81
220 -137 220 -186 0 -123 -219 -321 -540 -489 -122 -64 -121 -58 5 23 268 172
455 354 455 442 0 86 -272 241 -775 442 -137 55 -246 101 -241 101 5 0 41 -9
80 -21z m221 -170 c182 -66 199 -107 116 -284 -56 -119 -137 -181 -215 -161
-39 10 -47 53 -45 241 1 94 4 187 6 207 6 44 6 44 138 -3z m-6225 -486 c0 -10
-26 -39 -58 -64 -64 -51 -317 -229 -326 -229 -3 0 -6 7 -6 15 0 13 364 294
383 295 4 0 7 -8 7 -17z m72 -279 c31 -101 97 -367 100 -404 3 -35 3 -35 -35
-32 -109 9 -354 107 -427 171 l-35 31 34 28 c19 15 100 82 180 149 81 68 150
121 156 120 5 -2 17 -30 27 -63z m75 -36 c-3 -8 -6 -5 -6 6 -1 11 2 17 5 13 3
-3 4 -12 1 -19z m3600 -418 c5 -85 8 -258 8 -385 0 -216 -1 -232 -22 -270 -26
-48 -55 -76 -108 -103 -69 -34 -94 -37 -45 -5 58 38 127 114 137 150 4 15 8
207 8 425 0 402 9 473 22 188z m-1955 -157 c-54 -180 -69 -208 -117 -229 -48
-20 -89 -17 -170 11 -52 18 -60 23 -31 19 21 -3 73 -5 115 -5 67 0 78 3 96 24
12 13 50 98 85 190 36 91 66 163 67 159 2 -4 -19 -80 -45 -169z"/>
<path d="M11510 11889 c-263 -73 -811 -246 -930 -295 -293 -121 -797 -449
-1175 -766 -251 -209 -346 -320 -436 -503 -84 -174 -112 -346 -112 -690 1
-240 15 -413 58 -717 42 -291 40 -467 -10 -641 -36 -127 -101 -247 -170 -312
-51 -48 -50 -39 10 78 75 150 105 261 105 394 0 106 -22 188 -49 178 -200 -78
-481 -94 -766 -45 -373 65 -613 147 -1293 439 -522 224 -922 353 -1216 392
-185 24 -250 -18 -248 -161 1 -112 63 -236 131 -262 42 -15 139 -34 517 -98
516 -88 658 -119 889 -195 451 -148 1009 -467 1289 -734 318 -305 606 -700
793 -1090 42 -86 102 -212 135 -281 152 -315 224 -542 264 -825 20 -142 22
-460 5 -638 l-11 -119 67 -96 c174 -251 290 -403 496 -651 93 -111 122 -140
129 -128 14 25 24 225 15 317 -16 190 -77 461 -143 637 -30 82 -198 434 -223
468 -4 6 -25 41 -46 79 l-37 69 32 -19 c60 -35 159 -124 200 -178 23 -30 57
-90 76 -133 l35 -78 -4 145 c-8 247 -70 490 -272 1075 -23 66 141 -207 226
-375 83 -166 122 -263 154 -387 26 -101 54 -289 56 -376 1 -41 8 -17 33 115
17 91 34 170 39 174 4 4 7 1 7 -7 0 -8 22 -93 49 -189 46 -166 49 -173 55
-133 12 66 9 396 -4 528 -25 258 -97 604 -177 850 -97 297 -261 637 -617 1274
-47 85 -85 156 -83 158 2 2 29 -24 60 -58 31 -33 109 -115 173 -182 243 -254
405 -450 531 -646 40 -62 57 -81 63 -70 10 18 64 211 84 301 28 121 75 410 92
563 27 231 25 594 -4 805 -33 247 -69 435 -119 630 -51 197 -87 361 -97 435
-11 89 -15 417 -5 515 12 128 53 350 80 430 56 169 169 339 344 515 204 205
263 235 943 487 45 17 82 32 82 34 0 6 -33 3 -70 -7z"/>
<path d="M11495 11825 c-39 -18 -133 -57 -210 -85 -225 -84 -397 -163 -489
-224 -149 -99 -352 -316 -415 -442 -63 -126 -105 -320 -157 -721 l-5 -43 82
35 c118 51 322 154 436 221 313 183 454 335 613 659 73 151 133 305 175 455
22 77 46 183 41 179 0 0 -33 -16 -71 -34z m-30 -117 c-81 -407 -277 -735 -570
-955 -133 -99 -349 -239 -447 -289 -49 -25 -36 -15 112 84 177 118 329 241
460 373 171 171 249 304 356 606 56 157 80 213 90 213 3 0 3 -15 -1 -32z"/>
<path d="M7993 10825 c-63 -17 -122 -47 -181 -88 -35 -26 -188 -191 -332 -360
l-35 -41 40 24 c67 40 115 80 227 187 125 119 189 164 276 193 111 37 142 37
219 1 118 -56 145 -98 103 -165 -19 -32 -76 -83 -117 -105 -29 -15 -297 -71
-341 -71 -52 0 -29 -17 61 -45 110 -33 203 -34 301 -1 130 44 238 120 305 214
l23 33 -63 59 c-156 144 -339 207 -486 165z"/>
<path d="M6560 7418 c-116 -160 -267 -542 -327 -825 -23 -112 -27 -151 -27
-308 0 -161 3 -192 28 -299 61 -263 139 -419 389 -781 31 -44 160 -246 287
-450 127 -203 248 -385 267 -404 34 -32 36 -33 47 -15 7 12 11 82 11 189 0
196 2 189 -109 341 -375 512 -436 604 -557 844 -147 294 -204 478 -215 695
-11 208 25 387 117 573 28 57 52 102 54 100 2 -2 -9 -41 -25 -86 -46 -128 -70
-262 -77 -423 -10 -232 22 -396 122 -624 126 -291 266 -516 526 -849 106 -137
154 -181 165 -153 8 23 -15 361 -31 445 -33 173 -67 225 -227 353 -168 134
-239 223 -327 411 -73 154 -72 161 7 72 128 -145 245 -233 363 -273 32 -11 59
-18 59 -15 0 3 -31 51 -68 107 -38 56 -96 147 -129 202 -84 140 -256 465 -249
472 9 9 359 -347 440 -450 314 -396 421 -699 425 -1211 4 -536 58 -784 226
-1036 26 -39 79 -103 118 -143 132 -135 393 -479 506 -669 55 -91 116 -230
127 -285 3 -18 11 -33 17 -33 6 0 8 43 4 128 -8 190 -31 253 -172 472 -143
222 -244 422 -293 580 -52 169 -103 463 -136 780 -23 216 -46 560 -46 685 0
186 -34 360 -107 550 -32 84 -37 92 -86 124 -98 65 -247 151 -359 207 -289
144 -464 314 -559 543 -28 66 -106 361 -124 464 -3 20 -10 37 -15 37 -6 0 -24
-19 -40 -42z"/>
<path d="M7894 6022 c4 -7 14 -62 52 -287 3 -22 7 -188 9 -370 1 -181 5 -364
9 -405 21 -224 33 -323 57 -465 51 -302 147 -592 277 -839 105 -200 310 -489
444 -626 68 -70 159 -150 170 -150 3 0 -3 37 -13 83 -19 85 -49 292 -48 330 0
21 2 20 22 -7 62 -82 179 -227 181 -224 2 1 -3 59 -9 128 -14 140 -19 487 -9
539 7 33 7 32 34 -41 37 -101 114 -248 166 -317 23 -31 75 -89 115 -130 80
-79 277 -233 294 -228 20 7 37 95 38 192 0 97 -6 144 -36 273 -9 34 -11 62 -7
62 15 0 90 -112 102 -152 20 -69 38 -37 38 71 0 106 -109 389 -215 556 -61 97
-254 280 -364 345 -243 144 -445 351 -623 640 -65 105 -112 190 -105 190 2 0
109 -121 237 -270 128 -148 235 -270 237 -270 3 0 -87 185 -174 355 -116 227
-360 546 -595 777 -148 145 -310 282 -284 240z"/>
<path d="M9270 4874 c0 -11 -37 -295 -45 -349 l-6 -40 192 -140 c206 -150 419
-300 465 -327 16 -9 49 -29 74 -44 l45 -28 -41 50 c-22 27 -83 105 -134 174
-52 69 -146 190 -210 270 -63 80 -166 213 -227 295 -62 81 -113 144 -113 139z"/>
<path d="M6243 1705 c-50 -21 -67 -57 -67 -137 0 -53 5 -75 21 -96 35 -48 55
-52 249 -52 190 0 204 -3 204 -46 0 -41 -17 -44 -251 -46 l-223 -3 -1 -52 -1
-53 249 0 c270 0 289 3 317 55 9 17 15 56 15 100 0 59 -4 79 -21 102 -36 49
-55 53 -246 53 -147 0 -179 3 -192 16 -9 8 -16 19 -16 24 0 5 7 16 16 24 13
14 49 16 239 16 l223 0 -1 53 -2 52 -240 1 c-180 2 -249 -1 -272 -11z"/>
<path d="M7667 1706 c-2 -6 -3 -29 -2 -51 l1 -40 119 -5 120 -5 0 -190 0 -190
53 -3 52 -3 0 195 0 196 120 0 120 0 0 54 0 54 -289 -1 c-203 0 -291 -3 -294
-11z"/>
<path d="M9438 1703 c-21 -25 -280 -453 -285 -473 -3 -12 6 -15 49 -15 l53 0
48 75 c27 41 76 119 111 173 l63 99 41 -66 41 -66 -75 0 -75 0 3 -52 3 -53
106 1 106 0 36 -56 c36 -55 36 -55 86 -55 27 0 52 3 55 6 4 3 -63 116 -148
250 -162 257 -180 275 -218 232z"/>
<path d="M10768 1704 c-51 -27 -58 -56 -58 -245 l0 -171 34 -34 34 -34 217 0
c201 0 219 1 245 20 37 26 50 69 47 154 -3 65 -5 70 -40 102 l-37 34 -155 0
-155 0 0 -55 0 -55 128 0 c135 0 152 -5 152 -46 0 -41 -20 -46 -186 -45 -138
0 -158 3 -170 18 -9 12 -13 51 -14 124 0 90 3 108 18 122 16 15 48 17 240 17
l222 0 0 53 0 53 -248 1 c-196 1 -253 -2 -274 -13z"/>
<path d="M6345 942 c-16 -11 -50 -43 -75 -73 -25 -29 -56 -64 -69 -77 -14 -13
-26 -30 -27 -38 -1 -8 -12 -31 -24 -52 -31 -52 -41 -91 -29 -113 33 -63 149
48 149 143 0 20 -6 39 -12 41 -24 10 15 28 52 25 19 -2 36 2 37 7 2 6 -17 10
-41 10 -51 0 -51 0 32 81 67 66 70 84 7 46z m-102 -201 c10 -40 -53 -141 -87
-141 -21 0 4 73 46 133 23 32 34 34 41 8z"/>
<path d="M7169 933 c-54 -45 -75 -69 -123 -137 -49 -68 -56 -93 -30 -103 20
-8 82 24 95 49 14 26 -17 24 -33 -2 -7 -11 -21 -20 -30 -20 -29 0 -1 36 53 70
62 38 149 126 149 150 0 30 -42 25 -81 -7z m34 -26 c-28 -35 -103 -100 -109
-95 -8 9 97 118 113 118 12 0 11 -4 -4 -23z"/>
<path d="M8996 924 c-87 -80 -166 -188 -166 -229 0 -32 26 -13 53 40 16 30 62
89 103 132 41 43 74 81 74 85 0 18 -27 6 -64 -28z"/>
<path d="M8456 933 c-23 -12 -45 -60 -39 -84 1 -4 -17 -14 -41 -23 -65 -25
-84 -53 -77 -113 2 -17 54 -43 86 -43 14 0 39 7 55 15 17 9 30 11 30 6 0 -12
74 -24 100 -16 31 10 24 27 -9 22 -17 -3 -37 0 -47 7 -15 12 -14 16 11 54 28
43 34 45 93 44 22 -1 32 3 32 14 0 12 -13 14 -82 9 -45 -3 -84 -8 -87 -11 -2
-2 4 -11 15 -18 18 -14 18 -16 2 -32 -22 -22 -25 -18 -34 33 -6 37 -4 42 17
48 29 9 69 44 69 60 0 17 -32 42 -51 42 -9 0 -29 -7 -43 -14z m52 -33 c1 -9
-11 -24 -29 -34 l-31 -18 4 23 c2 13 8 30 13 36 13 16 39 12 43 -7z m-72 -136
c10 -40 9 -46 -7 -54 -50 -27 -108 6 -90 52 9 23 70 63 80 52 3 -3 10 -25 17
-50z"/>
<path d="M10443 907 c-23 -24 -46 -54 -52 -66 -8 -15 -21 -21 -44 -21 -21 0
-45 -10 -68 -30 -45 -37 -54 -65 -28 -91 18 -18 21 -18 50 -3 18 9 34 12 38 7
9 -15 41 -24 41 -12 0 6 -4 18 -9 28 -13 23 4 56 75 144 36 43 53 72 47 78 -6
6 -25 -6 -50 -34z m-93 -116 c0 -13 -40 -60 -61 -71 -30 -16 -25 22 7 54 26
25 54 35 54 17z"/>
<path d="M7758 889 c-25 -14 -22 -31 4 -27 13 2 24 11 26 21 4 19 -5 21 -30 6z"/>
<path d="M9242 870 c-18 -16 -41 -30 -51 -30 -25 0 -37 -17 -14 -22 15 -3 15
-4 0 -20 -23 -23 -39 -67 -32 -89 11 -33 63 -21 113 25 19 17 22 17 16 3 -16
-42 43 -60 107 -32 58 25 87 55 54 55 -8 0 -15 -4 -15 -8 0 -15 -79 -44 -101
-37 -19 6 -16 10 22 27 55 24 79 46 72 64 -3 8 -14 14 -25 14 -23 0 -98 -40
-98 -52 0 -4 -11 -8 -25 -8 -14 0 -25 -4 -25 -9 0 -5 -12 -16 -26 -26 -43 -28
-49 -4 -12 51 29 43 39 50 81 58 50 10 64 26 22 26 -14 0 -25 5 -25 10 0 6 5
10 10 10 6 0 10 5 10 10 0 19 -27 10 -58 -20z m118 -100 c-13 -10 -28 -16 -33
-13 -5 3 4 14 19 24 35 23 47 14 14 -11z"/>
<path d="M9765 880 c-18 -19 -17 -20 2 -20 22 0 47 23 36 33 -10 11 -19 8 -38
-13z"/>
<path d="M10875 886 c-10 -7 -16 -18 -14 -25 3 -9 11 -7 28 7 27 21 14 39 -14
18z"/>
<path d="M6884 798 c-45 -48 -154 -209 -154 -227 0 -26 23 -7 62 54 39 59 46
65 78 65 37 0 100 42 120 80 13 24 -12 50 -40 43 -16 -4 -19 -2 -14 11 11 29
-12 17 -52 -26z m67 -26 c-13 -24 -42 -48 -68 -56 -33 -10 -29 10 8 45 35 33
76 41 60 11z"/>
<path d="M10705 830 c-73 -16 -89 -40 -59 -86 13 -18 14 -28 6 -36 -14 -14
-45 9 -38 28 7 20 -10 26 -24 9 -29 -35 19 -75 74 -61 34 8 39 33 14 67 -21
29 -21 29 -2 44 18 13 64 21 64 10 0 -3 -14 -11 -32 -18 -42 -17 -24 -28 22
-13 23 7 36 18 38 32 4 25 -19 33 -63 24z"/>
<path d="M6394 811 c-37 -23 -74 -68 -74 -90 0 -48 54 -45 105 5 73 71 50 135
-31 85z m40 -25 c-3 -8 -12 -17 -20 -20 -9 -3 -13 -10 -9 -15 6 -11 -35 -42
-47 -35 -15 9 -9 22 25 53 34 32 60 41 51 17z"/>
<path d="M7230 822 c-59 -27 -100 -83 -86 -117 7 -20 45 -19 68 2 16 14 18 14
18 0 0 -16 37 -34 47 -23 3 3 0 13 -7 22 -12 13 -11 21 4 49 10 18 16 41 14
51 -3 20 -33 28 -58 16z m14 -54 c-35 -43 -61 -61 -69 -48 -7 11 21 57 44 70
9 5 24 10 34 10 16 0 15 -4 -9 -32z"/>
<path d="M7954 811 c-34 -21 -74 -67 -74 -85 0 -23 22 -35 46 -26 49 19 22 -2
-38 -29 -71 -32 -102 -60 -92 -85 15 -39 91 -9 136 54 15 21 47 48 70 60 57
30 100 80 68 80 -5 0 -10 -4 -10 -9 0 -5 -16 -21 -36 -36 -29 -22 -34 -24 -26
-8 6 11 18 25 26 33 9 7 16 25 16 41 0 25 -4 29 -27 29 -16 0 -42 -9 -59 -19z
m44 -25 c-10 -7 -18 -17 -18 -22 -1 -13 -49 -46 -62 -42 -18 6 52 78 76 78 20
-1 20 -2 4 -14z m-118 -166 c-35 -32 -54 -39 -48 -17 6 15 69 59 76 52 3 -3
-10 -19 -28 -35z"/>
<path d="M9800 808 c-19 -13 -44 -41 -55 -61 -20 -37 -20 -38 -1 -52 15 -12
24 -12 50 -1 36 15 95 87 92 113 -4 27 -47 27 -86 1z m36 -40 c-15 -18 -31
-39 -37 -45 -14 -18 -29 -16 -29 3 0 21 54 74 75 74 14 0 12 -6 -9 -32z"/>
<path d="M10904 811 c-35 -21 -74 -67 -74 -87 0 -21 33 -34 55 -22 18 9 18 9
5 -4 -8 -8 -36 -23 -62 -32 -78 -29 -113 -96 -50 -96 32 0 83 34 108 72 10 16
39 40 64 55 58 33 80 53 80 70 0 10 -13 4 -37 -16 -41 -34 -58 -33 -26 2 12
12 23 33 25 47 3 21 -1 25 -27 28 -16 1 -44 -6 -61 -17z m43 -29 c-9 -9 -25
-27 -37 -39 -11 -13 -27 -23 -36 -23 -15 0 -15 2 -2 23 17 25 79 70 86 62 3
-3 -2 -13 -11 -23z m-115 -162 c-33 -31 -57 -39 -50 -17 5 15 69 59 76 52 3
-3 -9 -18 -26 -35z"/>
<path d="M6525 792 c-34 -33 -72 -98 -62 -108 3 -4 30 15 59 41 29 26 54 42
56 36 7 -22 102 -3 102 21 0 10 -3 10 -34 -2 -17 -6 -26 -6 -26 1 0 5 7 12 15
15 8 4 15 11 15 16 0 14 -51 0 -73 -19 -9 -9 -20 -13 -24 -10 -3 4 -1 7 5 7 7
0 12 7 12 15 0 22 -11 19 -45 -13z"/>
<path d="M7677 785 c-45 -46 -64 -82 -50 -96 8 -8 22 6 48 45 20 31 41 59 46
62 5 3 9 9 9 15 0 18 -19 9 -53 -26z"/>
<path d="M9521 803 c-22 -15 -81 -99 -81 -115 0 -17 18 -7 65 37 33 31 51 42
56 34 8 -14 74 -6 95 12 21 17 13 20 -24 10 -38 -11 -40 -6 -9 20 20 17 20 18
3 19 -10 0 -35 -10 -55 -22 -25 -15 -32 -17 -23 -6 18 23 0 30 -27 11z"/>
<path d="M9691 785 c-51 -58 -69 -105 -41 -105 3 0 16 17 27 38 12 20 33 48
47 61 23 22 26 41 6 41 -4 0 -22 -16 -39 -35z"/>
<path d="M9936 788 c-29 -29 -66 -86 -66 -103 0 -15 25 -1 61 35 37 37 43 39
82 34 34 -5 47 -2 67 15 27 22 13 28 -22 10 -29 -16 -34 -2 -7 20 23 19 23 20
4 21 -11 0 -38 -12 -60 -27 -32 -21 -36 -22 -22 -6 32 36 0 37 -37 1z"/>
<path d="M10457 794 c-43 -29 -59 -60 -45 -88 8 -15 18 -17 52 -13 61 9 130
47 113 63 -2 2 -27 -7 -55 -22 -32 -16 -58 -24 -69 -19 -15 5 -10 10 22 25 47
21 80 54 70 69 -11 19 -49 12 -88 -15z m33 -24 c-37 -29 -50 -24 -16 6 15 14
31 22 35 19 3 -4 -5 -15 -19 -25z"/>
<path d="M10795 786 c-46 -49 -68 -93 -49 -100 8 -3 20 6 29 24 9 16 29 45 46
64 41 47 18 58 -26 12z"/>
<path d="M7350 788 c-34 -37 -62 -87 -55 -99 5 -7 24 5 52 33 30 29 41 35 33
20 -16 -32 -5 -72 20 -72 17 0 18 4 10 25 -8 22 -5 31 25 64 19 21 35 41 35
45 0 12 -36 6 -58 -10 -20 -14 -22 -14 -22 0 0 22 -16 20 -40 -6z"/>
<path d="M7517 787 c-40 -42 -57 -67 -57 -82 0 -21 27 -19 39 4 6 10 21 25 35
34 l25 17 -14 -27 c-15 -29 -7 -56 20 -67 13 -5 15 0 10 27 -6 28 -1 39 30 72
33 36 34 40 16 43 -11 2 -31 -4 -46 -14 -23 -15 -25 -15 -19 0 9 24 -13 20
-39 -7z"/>
<path d="M7783 802 c-20 -13 -73 -84 -73 -98 0 -23 26 -16 44 11 9 13 26 30
38 36 20 10 21 10 12 -2 -21 -26 -23 -57 -5 -73 22 -20 32 -11 25 23 -4 21 2
35 32 66 29 31 34 41 21 43 -8 2 -29 -4 -46 -13 -27 -13 -30 -13 -25 0 7 16
-4 19 -23 7z"/>
<path d="M8981 764 c-23 -26 -41 -53 -41 -60 0 -23 25 -16 55 16 35 36 48 39
33 6 -14 -32 -4 -56 22 -56 18 0 19 3 10 20 -9 16 -7 26 9 49 11 15 27 34 36
41 36 30 -3 43 -43 14 -13 -9 -26 -13 -29 -10 -4 3 -1 6 6 6 7 0 9 5 6 10 -11
18 -22 11 -64 -36z"/>
<path d="M11095 802 c-18 -13 -75 -89 -75 -101 0 -20 26 -11 55 19 16 17 33
30 39 30 6 0 5 -5 -2 -12 -19 -19 -14 -56 9 -69 21 -11 22 -10 16 20 -6 27 -1
38 30 71 41 46 37 60 -10 42 -21 -8 -33 -9 -35 -2 -4 12 -13 13 -27 2z"/>
</g>
</svg>
